<svg width="512" height="512" viewBox="0 0 512 512" fill="none" xmlns="http://www.w3.org/2000/svg">
  <!-- Background -->
  <rect width="512" height="512" rx="128" fill="url(#paint0_linear)" />
  
  <!-- Decorative Elements -->
  <circle cx="256" cy="256" r="200" stroke="url(#paint1_linear)" stroke-width="8" stroke-opacity="0.6" />
  <circle cx="256" cy="256" r="160" stroke="url(#paint2_linear)" stroke-width="4" stroke-opacity="0.4" />
  
  <!-- Main Icon Elements -->
  <path d="M192 160L256 110L320 160L360 256L320 352L256 402L192 352L152 256L192 160Z" 
        fill="url(#paint3_linear)" fill-opacity="0.95" />
  
  <path d="M222 180L256 155L290 180L315 256L290 332L256 357L222 332L197 256L222 180Z" 
        fill="#0F172A" />
        
  <!-- Accent Elements -->
  <circle cx="256" cy="256" r="25" fill="url(#paint4_radial)" />
  <circle cx="256" cy="256" r="15" fill="#0F172A" />
  
  <!-- Sparkles -->
  <circle cx="380" cy="150" r="8" fill="white" fill-opacity="0.8" />
  <circle cx="130" cy="360" r="6" fill="white" fill-opacity="0.7" />
  <circle cx="400" cy="300" r="5" fill="white" fill-opacity="0.6" />
  <circle cx="110" cy="200" r="7" fill="white" fill-opacity="0.5" />
  
  <!-- Gradient Definitions -->
  <defs>
    <linearGradient id="paint0_linear" x1="0" y1="0" x2="512" y2="512" gradientUnits="userSpaceOnUse">
      <stop offset="0" stop-color="#0F172A" />
      <stop offset="1" stop-color="#1E293B" />
    </linearGradient>
    
    <linearGradient id="paint1_linear" x1="100" y1="100" x2="400" y2="400" gradientUnits="userSpaceOnUse">
      <stop offset="0" stop-color="#8B5CF6" />
      <stop offset="1" stop-color="#06B6D4" />
    </linearGradient>
    
    <linearGradient id="paint2_linear" x1="150" y1="150" x2="350" y2="350" gradientUnits="userSpaceOnUse">
      <stop offset="0" stop-color="#06B6D4" />
      <stop offset="1" stop-color="#EC4899" />
    </linearGradient>
    
    <linearGradient id="paint3_linear" x1="152" y1="110" x2="360" y2="402" gradientUnits="userSpaceOnUse">
      <stop offset="0" stop-color="#8B5CF6" />
      <stop offset="0.5" stop-color="#06B6D4" />
      <stop offset="1" stop-color="#EC4899" />
    </linearGradient>
    
    <radialGradient id="paint4_radial" cx="0" cy="0" r="1" gradientUnits="userSpaceOnUse" 
                   gradientTransform="translate(256 256) rotate(90) scale(25)">
      <stop offset="0" stop-color="white" />
      <stop offset="1" stop-color="#8B5CF6" />
    </radialGradient>
  </defs>
</svg>